<svg width="300" height="32" viewBox="173 197 300 32" fill="none" xmlns="http://www.w3.org/2000/svg">
<path d="M471.931 228.998H427.547L434.284 197.295H440.624L435.225 222.658H473.269L471.931 228.998Z" fill="currentColor"/>
<path d="M426.605 203.636H388.561L384.499 222.658H422.543L421.206 228.998H383.162C378.935 228.998 377.267 226.885 378.159 222.658L382.221 203.636C383.112 199.408 385.672 197.295 389.899 197.295H427.943L426.605 203.636ZM423.881 216.317H392.178L393.565 209.976H425.268L423.881 216.317Z" fill="currentColor"/>
<path d="M332.833 197.295H377.218L375.88 203.636H356.858L351.459 228.998H345.118L350.518 203.636H331.496L332.833 197.295Z" fill="currentColor"/>
<path d="M281.711 228.998H275.371L282.108 197.295H320.152C324.379 197.295 326.046 199.408 325.155 203.636L323.817 209.976C322.893 214.203 320.35 216.317 316.189 216.317H309.749L319.755 228.998H311.83L301.823 216.317H290.727L292.114 209.976H317.477L318.814 203.636H287.111L281.711 228.998Z" fill="currentColor"/>
<path d="M230.986 228.998H224.645L230.045 203.636C230.937 199.408 233.496 197.295 237.723 197.295H269.426C273.653 197.295 275.321 199.408 274.43 203.636L269.03 228.998H262.689L265.364 216.317H240.002L241.389 209.976H266.751L268.089 203.636H236.386L230.986 228.998Z" fill="currentColor"/>
<path d="M186.998 197.295L180.261 228.998H173.92L180.657 197.295H186.998ZM189.97 213.147L214.738 197.295H225.042L200.274 213.147L218.305 228.998H208.001L189.97 213.147Z" fill="currentColor"/>
</svg>
