<svg width="1451" height="491" viewBox="83 266 1451 491" fill="none" xmlns="http://www.w3.org/2000/svg">

<g clip-path="url(#clip0_8_69)">
<path d="M596.5 266.5H859" stroke="black" stroke-width="1.2"/>
<path d="M175 657H83.5V661.5V666H101.5C116.5 671.67 137 687.33 173.5 700C210 712.67 275.67 732.67 320.5 742C365.33 751.33 403 756 442.5 756H1441.5L1451 715.5L1460.5 675L1533.5 666L1533.45 657H1382.5M175 657L174.5 514M175 657H235.5M1382.5 657V582.5M1382.5 657H235.5M174.5 514L151.5 508V499H286.5M174.5 514H286.5M235.5 657V590M286.5 499V432M286.5 499H356V574.5M286.5 514H296.5V574.5M286.5 514V590H235.5M286.5 432L263.5 429V416H446.5M286.5 432H361.5M356 574.5H296.5M356 574.5H361.5M446.5 416H500.5M446.5 416C455.08 395.08 489.42 315.42 498 290.5V266.5H547M361.5 432V574.5M361.5 432H405M1382.5 425H1392.5V416H1007.5M1382.5 425V435H1392.5V440H1382.5V454H1393V459H1382.5V473H1393M1234.5 424H1377L1382.5 425M1007.5 416H955M1007.5 416C999.08 395.33 965.33 316.92 957 292L957.5 266.5H908.25M1377 424V435M1341.5 499.5V492H1382.5V478V477.5M1341.5 499.5H1287M1341.5 499.5H1377M1382.5 582.5H296.5V574.5M1382.5 582.5V574.5M1382.5 574.5V499.5H1377M1382.5 574.5H1287M1287 574.5H1234.5M1287 574.5V499.5M174.77 590H235.5M361.5 574.5H405M405 574.5H449.5M405 574.5V432M744.5 500.092V432H631.5M631.5 432H585M631.5 432V499.5M405 432H449.5M449.5 574.5V432M449.5 574.5H454M449.5 432H476.5M454 574.5V499.5H476.5M454 574.5H1234.5M476.5 432V499.5M476.5 432H585M401.5 437.106H365V569.5H402V436.5M476.5 499.5H585M1234.5 574.5V499.5M1377 499.5V478M585 432V499.5M585 499.5H631.5M631.5 499.5H876.5M876.5 499.5V424H959.5M876.5 499.5H959.5M959.5 424V499.5M959.5 424H963M959.5 499.5H963M963 424V499.5M963 424H1049.5M963 499.5H1049.5M1049.5 424V499.5M1049.5 424H1053M1049.5 499.5H1053M1053 424V499.5M1053 424H1139.5M1053 499.5H1139.5M1139.5 424V499.5M1139.5 424H1144M1139.5 499.5H1144M1144 424V499.5M1144 424H1230.5M1144 499.5H1230.5M1230.5 424V499.5M1230.5 424H1234.5M1230.5 499.5H1234.5M1234.5 424V499.5M1234.5 499.5H1287M1377 435H1341.5V440H1377M1377 435V440M1377 473V477V478M1377 473V458V454V440M1377 473H1341V478H1377M500.5 416H593M500.5 416L547 301M547 266.5H596V290.5C604.33 315.42 637.67 395.08 646 416M547 266.5V301M646 416H593M646 416H809.5M593 416L547 301M809.5 416C817.75 395.33 850.75 316.92 859 292V266.5H908.25M809.5 416H862.5M908.25 266.5L908.5 301.5M862.5 416H955M862.5 416L908.5 301.5M955 416L908.5 301.5M181.5 517.5V585.5H232V517.5H181.5ZM238.5 517.5V585.5H283.5V517.5H238.5ZM445 569H409V437H444.5L445 569ZM481 437V493.5H582V437H481ZM637.5 437V493.5H739V437H637.5ZM355 596.5V635H417.5V596.5H355ZM362.5 602.5V628.5H410.5V602.5H362.5ZM567.5 596.5V635H658V596.5H567.5ZM573.5 602.5V628.5H651.5V602.5H573.5ZM718 596.5V635H809V596.5H718ZM724.5 602.5V628.5H803V602.5H724.5ZM898 596.5V635H959.5V596.5H898ZM904.5 602.5V628.5H953.5V602.5H904.5ZM1049.5 596.5V635H1139.5V596.5H1049.5ZM1055.5 602.5V628.5H1133.5V602.5H1055.5ZM1230.5 596.5V635H1291.5V596.5H1230.5ZM1236.5 602.5V628.5H1284.5V602.5H1236.5Z" stroke="black" stroke-width="1.2"/>
<path d="M1382.5 478H1393V472.398" stroke="black"/>
<path d="M1377 454H1341V459H1377" stroke="black"/>
<path d="M294.5 416L294 341.5H287V336.5H479.789" stroke="black" stroke-width="1.2"/>
<path d="M532.5 336.5H561" stroke="black" stroke-width="1.2"/>
<path d="M613.691 336.5H842.213M894.5 336.5H923M1364 416L1392 399V341.5M1392 341.5V336.5H974M1392 341.5H1346.5M1356.5 416L1388 397V378.5M1388 378.5V360M1388 378.5L992 379M1388 397L1000 397.5M1388 341.5V360M1388 360H984M1346.5 341.5H1341.75M1346.5 341.5V416.5M976.255 341.5H1050M1050 341.5V416.5M1050 341.5H1054M924.5 341.5H892.5M840 341.5H791.5M791.5 341.5H788M791.5 341.5V416H788V341.5M616 341.5H623.5M623.5 341.5V415.5M623.5 341.5H631.5M563 341.5H542.5M542.5 341.5H539M542.5 341.5V416H539V341.5M531 341.5H539M477.5 341.5H458M458 341.5H450M458 341.5V360M294 341.5H309.5M309.5 341.5H313M309.5 341.5V378.5V416H313V379M313 341.5H370.5M313 341.5V379M370.5 341.5H374M370.5 341.5V416H374V341.5M294.5 360H450M450 360V341.5M450 360V417.5H458V360M450 360H458M470 360H458M294.5 379H313M462 379H313M294.5 397.5H454M374 341.5H450M523.203 360H570.5M515.5 379H578M508 397.5H586M631.5 341.5V360M631.5 341.5H707M631.5 415.5V379M631.5 379V360M631.5 379H824.5M631.5 360H832M707 341.5V416M707 341.5H712M817 397.5H638.5M712 341.5V416M712 341.5H788M868.5 415.5V401M876.5 415.5V397.5M876.5 397.5V381M876.5 397.5H947.5M877.385 379H940M885 360H932.5M1054 341.5V416.5M1054 341.5H1140M1140 341.5V416.5M1140 341.5H1144.5M1144.5 341.5V416.5M1144.5 341.5H1230M1230 341.5V416.5M1230 341.5H1235M1235 341.5V416.5M1235 341.5H1287.5M1287.5 341.5V416.5M1287.5 341.5H1291.5M1291.5 341.5V416.5M1291.5 341.5H1341.75M1341.75 341.5L1342.5 416.5" stroke="black" stroke-width="1.2"/>
<path d="M1382 492.101H1393V499.399H1382" stroke="black"/>
<path d="M232 517.5H181.5V585.5H232V517.5Z" fill="#ECECEC"/>
<path d="M283.5 517.5H238.5V585.5H283.5V517.5Z" fill="#ECECEC"/>
<path d="M232 517.5H181.5V585.5H232V517.5Z" stroke="black"/>
<path d="M283.5 517.5H238.5V585.5H283.5V517.5Z" stroke="black"/>
<path d="M402 437H365V569.5H402V437Z" fill="#ECECEC"/>
<path d="M444.5 437H409V437.5V569H445L444.5 437Z" fill="#ECECEC"/>
<path d="M481 437V493.5H582V437H481Z" fill="#ECECEC"/>
<path d="M637.5 437V493.5H739V437H637.5Z" fill="#ECECEC"/>
<path d="M402 437H365V569.5H402V437Z" stroke="black"/>
<path d="M444.5 437H409V437.5V569H445L444.5 437Z" stroke="black"/>
<path d="M481 437V493.5H582V437H481Z" stroke="black"/>
<path d="M637.5 437V493.5H739V437H637.5Z" stroke="black"/>
<path d="M362.5 628.5V602.5H410.5V628.5H362.5Z" fill="#ECECEC"/>
<path d="M573.5 628.5V602.5H651.5V628.5H573.5Z" fill="#ECECEC"/>
<path d="M724.5 628.5V602.5H803V628.5H724.5Z" fill="#ECECEC"/>
<path d="M904.5 628.5V602.5H953.5V628.5H904.5Z" fill="#ECECEC"/>
<path d="M1055.5 628.5V602.5H1133.5V628.5H1055.5Z" fill="#ECECEC"/>
<path d="M1236.5 628.5V602.5H1284.5V628.5H1236.5Z" fill="#ECECEC"/>
<path d="M362.5 628.5V602.5H410.5V628.5H362.5Z" stroke="black"/>
<path d="M573.5 628.5V602.5H651.5V628.5H573.5Z" stroke="black"/>
<path d="M724.5 628.5V602.5H803V628.5H724.5Z" stroke="black"/>
<path d="M904.5 628.5V602.5H953.5V628.5H904.5Z" stroke="black"/>
<path d="M1055.5 628.5V602.5H1133.5V628.5H1055.5Z" stroke="black"/>
<path d="M1236.5 628.5V602.5H1284.5V628.5H1236.5Z" stroke="black"/>
</g>
<path d="M477.5 341.5L479.5 336.5H287" stroke="black"/>
<path d="M287 341.5H477.287" stroke="black"/>
<path d="M287 336.5V341.5" stroke="black"/>
<defs>
<clipPath id="clip0_8_69">
<rect width="1451" height="491" fill="white" transform="translate(83 266)"/>
</clipPath>
</defs>
</svg>
